<?xml version="1.0" standalone="no"?>
<!DOCTYPE svg PUBLIC "-//W3C//DTD SVG 20010904//EN"
 "http://www.w3.org/TR/2001/REC-SVG-20010904/DTD/svg10.dtd">
<svg version="1.0" xmlns="http://www.w3.org/2000/svg"
 width="380.000000pt" height="380.000000pt" viewBox="0 0 380.000000 380.000000"
 preserveAspectRatio="xMidYMid meet">

<g transform="translate(0.000000,380.000000) scale(0.100000,-0.100000)"
fill="#000000" stroke="none">
<path d="M2130 3669 l-35 -19 75 -1 c104 -2 152 -5 175 -12 122 -36 189 -58
193 -62 3 -3 10 -1 17 5 7 6 21 2 40 -10 17 -11 26 -20 22 -20 -4 0 -19 7 -32
16 -14 9 -25 12 -25 8 0 -5 14 -17 32 -27 25 -14 33 -15 41 -5 6 9 7 8 3 -4
-4 -13 4 -23 27 -35 18 -9 35 -16 40 -15 4 1 7 -2 7 -8 0 -6 5 -9 12 -8 7 2
12 -3 13 -10 0 -15 63 -74 104 -98 17 -10 27 -22 24 -27 -3 -6 -1 -7 5 -3 11
6 14 -1 11 -20 -1 -3 10 -18 24 -32 42 -45 137 -194 138 -216 0 -18 2 -17 10
5 8 22 4 37 -28 90 -61 105 -214 276 -235 263 -6 -4 -8 -3 -5 3 7 11 -73 82
-143 127 -61 39 -200 98 -217 92 -7 -3 -13 0 -13 6 0 7 -6 6 -16 -2 -12 -11
-15 -11 -12 1 2 10 -15 15 -72 20 -41 4 -91 10 -110 12 -24 4 -46 -1 -70 -14z"/>
<path d="M2034 3669 c-23 -6 -50 -19 -59 -29 -23 -26 -8 -25 30 0 17 11 38 20
47 20 9 0 20 5 23 10 3 6 5 10 3 9 -2 -1 -22 -5 -44 -10z"/>
<path d="M2127 3583 c-9 -2 -15 -8 -12 -13 7 -11 -35 -51 -47 -44 -4 3 -8 0
-8 -6 0 -7 7 -10 15 -6 8 3 15 0 16 -7 0 -7 5 -3 10 8 6 11 27 32 46 48 36 27
30 33 -20 20z"/>
<path d="M2053 3573 c9 -2 25 -2 35 0 9 3 1 5 -18 5 -19 0 -27 -2 -17 -5z"/>
<path d="M1975 3560 c-3 -6 1 -7 9 -4 18 7 21 14 7 14 -6 0 -13 -4 -16 -10z"/>
<path d="M2011 3550 c-9 -5 -4 -9 13 -12 14 -3 26 -2 26 2 0 12 -26 19 -39 10z"/>
<path d="M1918 3523 c7 -3 16 -2 19 1 4 3 -2 6 -13 5 -11 0 -14 -3 -6 -6z"/>
<path d="M1995 3523 c11 -3 25 -9 32 -15 7 -5 13 -5 17 0 6 10 -27 23 -54 21
-8 -1 -6 -3 5 -6z"/>
<path d="M1629 3474 l-34 -36 30 15 c39 20 74 57 54 57 -9 0 -31 -16 -50 -36z"/>
<path d="M1930 3490 c0 -5 5 -10 10 -10 6 0 10 5 10 10 0 6 -4 10 -10 10 -5 0
-10 -4 -10 -10z"/>
<path d="M2045 3490 l-20 -9 20 -1 c11 -1 14 -4 8 -7 -7 -2 -13 -11 -13 -19 0
-8 -7 -14 -16 -14 -9 0 -27 -11 -40 -25 -23 -25 -18 -30 24 -19 19 5 20 9 10
22 -11 13 -9 14 18 10 27 -4 30 -1 26 16 -4 14 -2 17 8 11 8 -5 11 -4 6 3 -3
6 -2 13 4 17 6 4 8 11 5 16 -7 11 -13 11 -40 -1z"/>
<path d="M1945 3460 c-13 -6 -15 -9 -5 -9 8 0 22 4 30 9 18 12 2 12 -25 0z"/>
<path d="M2800 3456 c0 -2 8 -10 18 -17 15 -13 16 -12 3 4 -13 16 -21 21 -21
13z"/>
<path d="M1955 3420 c-3 -6 1 -7 9 -4 18 7 21 14 7 14 -6 0 -13 -4 -16 -10z"/>
<path d="M2540 3386 c0 -9 5 -16 10 -16 6 0 10 4 10 9 0 6 -4 13 -10 16 -5 3
-10 -1 -10 -9z"/>
<path d="M2008 3383 c7 -3 16 -2 19 1 4 3 -2 6 -13 5 -11 0 -14 -3 -6 -6z"/>
<path d="M1946 3372 c-3 -5 14 -9 37 -10 32 0 37 1 22 8 -26 11 -53 12 -59 2z"/>
<path d="M1489 3343 c-13 -16 -12 -17 4 -4 9 7 17 15 17 17 0 8 -8 3 -21 -13z"/>
<path d="M1936 3341 c-15 -6 -16 -9 -5 -13 24 -9 62 -4 67 10 4 13 -31 15 -62
3z"/>
<path d="M1945 3279 c-20 -20 -20 -20 5 -11 13 5 26 14 28 20 6 18 -11 13 -33
-9z"/>
<path d="M1540 3271 c0 -17 21 -24 33 -12 9 9 7 10 -7 5 -13 -5 -17 -4 -12 4
4 7 2 12 -3 12 -6 0 -11 -4 -11 -9z"/>
<path d="M1389 3243 c-13 -16 -12 -17 4 -4 16 13 21 21 13 21 -2 0 -10 -8 -17
-17z"/>
<path d="M1509 3243 c-12 -14 -12 -16 0 -8 11 6 13 4 8 -9 -5 -11 -3 -16 5
-14 13 5 20 36 8 43 -4 3 -14 -3 -21 -12z"/>
<path d="M1949 3237 c-31 -15 -60 -42 -52 -51 3 -3 11 1 17 10 7 9 18 12 29 8
17 -6 17 -7 0 -20 -10 -7 -27 -14 -38 -15 -13 0 -9 -4 13 -10 17 -5 32 -12 32
-15 0 -4 -8 -3 -17 0 -17 7 -17 6 -1 -10 10 -10 21 -15 24 -11 12 12 15 85 4
92 -7 5 -5 12 7 21 22 16 17 16 -18 1z"/>
<path d="M1335 3176 c-32 -55 -75 -160 -75 -183 0 -10 22 27 49 82 64 134 80
193 26 101z"/>
<path d="M1467 3170 c-16 -19 -14 -24 6 -21 5 1 6 -3 3 -8 -3 -5 1 -22 9 -37
15 -29 10 -51 -5 -23 -7 11 -18 15 -36 11 -18 -3 -25 -1 -20 6 3 5 17 9 31 7
25 -2 25 -2 8 16 -17 17 -19 17 -35 -3 -10 -11 -18 -27 -18 -35 0 -9 6 -12 18
-9 19 6 36 -3 39 -21 2 -6 -6 -11 -17 -10 -10 1 -16 5 -14 9 3 4 -2 8 -11 8
-9 0 -14 -4 -11 -9 4 -5 0 -12 -6 -14 -7 -3 -2 -6 12 -6 20 -1 22 -3 10 -11
-13 -8 -13 -10 2 -10 9 0 18 -6 21 -12 3 -10 9 -8 24 5 11 9 33 17 49 17 20 0
25 -3 15 -9 -7 -5 -21 -6 -31 -4 -10 3 -21 -1 -25 -7 -5 -9 -1 -10 14 -5 21 6
26 -1 22 -34 -2 -7 3 -10 9 -6 6 4 9 13 6 20 -3 8 10 22 30 34 39 23 48 26 39
11 -3 -5 1 -10 10 -10 22 0 10 -17 -26 -35 -17 -10 -29 -11 -29 -5 0 6 10 15
23 20 15 6 17 9 6 9 -9 1 -22 -6 -29 -15 -11 -13 -10 -19 8 -36 21 -21 21 -21
29 -2 4 10 15 19 23 19 8 0 14 7 12 15 -3 12 -1 13 10 2 11 -11 9 -17 -9 -32
-13 -10 -23 -21 -23 -25 0 -10 49 29 50 40 1 18 37 55 65 65 33 13 68 13 60 0
-3 -5 -13 -7 -23 -4 -14 5 -14 4 -2 -4 8 -6 18 -9 22 -6 4 3 17 0 28 -6 16 -9
25 -8 38 2 9 7 13 8 9 2 -4 -6 2 -19 12 -28 16 -15 21 -15 57 -1 21 9 28 13
14 11 -24 -5 -24 -5 -5 10 20 15 20 16 1 29 -16 12 -17 17 -6 30 7 8 9 15 4
15 -4 0 -3 5 4 12 17 17 -17 41 -37 25 -11 -9 -13 -9 -8 0 4 6 1 13 -5 16 -17
5 -59 -22 -52 -34 3 -5 -2 -6 -11 -3 -18 7 -67 -15 -60 -27 3 -4 -4 -5 -15 -2
-14 4 -19 1 -15 -8 4 -11 -5 -14 -34 -13 -22 0 -38 -3 -35 -7 2 -4 0 -10 -6
-14 -5 -3 -10 -2 -10 3 0 16 -46 20 -66 5 -13 -10 -20 -10 -25 -1 -4 6 -22 11
-39 11 -28 0 -30 2 -16 12 19 15 22 74 3 81 -8 3 -14 11 -14 19 0 8 4 12 8 10
3 -3 11 1 17 8 8 10 5 13 -12 15 -12 1 -30 -7 -39 -18z m353 -90 c0 -5 -2 -10
-4 -10 -3 0 -8 5 -11 10 -3 6 -1 10 4 10 6 0 11 -4 11 -10z m100 0 c0 -5 -2
-10 -4 -10 -3 0 -8 5 -11 10 -3 6 -1 10 4 10 6 0 11 -4 11 -10z m-95 -38 c-3
-3 -11 0 -18 7 -9 10 -8 11 6 5 10 -3 15 -9 12 -12z m100 -20 c-3 -3 -11 0
-18 7 -9 10 -8 11 6 5 10 -3 15 -9 12 -12z m-20 -22 c-3 -5 -11 -10 -16 -10
-6 0 -7 5 -4 10 3 6 11 10 16 10 6 0 7 -4 4 -10z"/>
<path d="M3061 3125 c1 -19 18 -51 18 -35 0 8 -4 22 -9 30 -5 8 -9 11 -9 5z"/>
<path d="M2275 3080 c-3 -5 -1 -10 4 -10 6 0 11 5 11 10 0 6 -2 10 -4 10 -3 0
-8 -4 -11 -10z"/>
<path d="M3081 3054 c0 -11 3 -14 6 -6 3 7 2 16 -1 19 -3 4 -6 -2 -5 -13z"/>
<path d="M1402 2979 c-8 -12 -9 -18 -3 -15 5 4 11 -3 13 -14 3 -19 4 -19 33 6
26 22 27 24 8 19 -17 -5 -23 -2 -23 9 0 22 -13 20 -28 -5z"/>
<path d="M1736 2975 c-3 -8 -12 -15 -19 -15 -8 0 -21 -8 -31 -19 -16 -18 -15
-18 19 -7 19 6 35 15 35 19 0 5 4 6 8 3 4 -2 8 4 8 15 0 23 -12 25 -20 4z"/>
<path d="M3068 2968 c3 -13 12 -30 21 -38 13 -13 14 -12 8 10 -4 14 -7 31 -7
38 0 6 -6 12 -14 12 -10 0 -12 -7 -8 -22z"/>
<path d="M1480 2963 c-14 -10 -34 -25 -44 -35 -18 -17 -20 -17 -38 4 -20 24
-38 17 -18 -7 10 -12 9 -15 -5 -15 -10 0 -15 -3 -12 -7 4 -3 1 -13 -5 -22 -8
-10 -4 -9 10 3 22 19 32 10 11 -11 -9 -9 -6 -10 12 -6 23 6 23 5 -4 -17 -15
-12 -26 -25 -23 -28 3 -2 12 1 21 8 27 23 16 5 -25 -39 -44 -47 -46 -69 -3
-30 l27 24 -23 -32 c-12 -18 -19 -33 -14 -33 11 0 40 20 29 20 -5 0 9 12 30
26 55 37 95 75 105 102 5 12 13 22 19 22 6 0 9 -4 5 -9 -3 -5 -1 -12 5 -16 6
-4 8 -11 5 -16 -4 -5 10 1 30 12 20 12 34 24 31 27 -3 2 -17 -3 -30 -12 -19
-12 -24 -13 -20 -2 3 9 -6 18 -27 25 -29 10 -37 9 -68 -14 -31 -21 -37 -23
-44 -9 -10 18 10 47 26 37 6 -4 3 -11 -8 -20 -33 -23 -7 -14 31 12 21 14 40
22 43 17 3 -4 13 -7 21 -7 8 0 20 -5 25 -12 8 -9 14 -9 30 3 20 16 20 16 -1
10 -17 -5 -23 -1 -27 15 -5 19 -8 20 -22 9 -14 -12 -18 -12 -25 0 -4 7 -6 19
-3 27 7 17 3 17 -27 -4z m3 -29 c-27 -20 -39 -17 -18 6 10 11 22 17 27 14 5
-3 1 -12 -9 -20z m11 -63 c3 -4 -3 -16 -14 -26 -11 -10 -20 -15 -20 -10 0 4 8
14 18 22 16 14 16 14 -1 9 -11 -3 -16 -2 -12 4 8 12 22 13 29 1z"/>
<path d="M1915 2960 l-20 -9 20 0 c11 0 27 4 35 9 13 9 13 10 0 9 -8 0 -24 -4
-35 -9z"/>
<path d="M1246 2949 c-23 -66 -56 -191 -58 -219 -2 -28 -7 -34 -23 -32 -18 2
-18 1 -3 -8 9 -5 19 -24 23 -40 4 -17 10 -30 15 -30 4 0 6 9 3 20 -8 30 15
176 39 248 11 34 18 65 15 69 -4 3 -9 0 -11 -8z"/>
<path d="M1938 2933 c7 -3 16 -2 19 1 4 3 -2 6 -13 5 -11 0 -14 -3 -6 -6z"/>
<path d="M1727 2923 c-10 -9 -9 -23 2 -23 5 0 11 7 15 15 5 15 -5 20 -17 8z"/>
<path d="M1804 2915 c-18 -14 -18 -14 4 -8 12 3 22 9 22 14 0 12 -3 11 -26 -6z"/>
<path d="M3121 2910 c0 -8 4 -24 9 -35 l9 -20 0 20 c0 11 -4 27 -9 35 -9 13
-10 13 -9 0z"/>
<path d="M1927 2903 c-12 -12 -7 -22 8 -17 8 4 15 10 15 15 0 11 -14 12 -23 2z"/>
<path d="M1685 2890 c-3 -6 1 -7 9 -4 18 7 21 14 7 14 -6 0 -13 -4 -16 -10z"/>
<path d="M3080 2897 c0 -3 7 -18 15 -33 l16 -29 -3 29 c-2 16 -9 31 -15 34 -7
2 -13 2 -13 -1z"/>
<path d="M1845 2870 c-3 -6 1 -7 9 -4 18 7 21 14 7 14 -6 0 -13 -4 -16 -10z"/>
<path d="M1768 2863 c7 -3 16 -2 19 1 4 3 -2 6 -13 5 -11 0 -14 -3 -6 -6z"/>
<path d="M1881 2859 c-30 -12 -26 -15 24 -23 34 -5 36 -4 15 5 -20 8 -22 12
-10 19 19 12 2 12 -29 -1z"/>
<path d="M1753 2833 c0 -17 9 -16 32 1 19 14 18 14 -6 13 -14 -1 -26 -8 -26
-14z"/>
<path d="M1695 2819 c-11 -17 3 -23 27 -11 l23 12 -24 -6 c-16 -4 -21 -3 -17
5 4 6 5 11 2 11 -3 0 -8 -5 -11 -11z"/>
<path d="M1850 2820 c-20 -6 -21 -8 -5 -8 11 0 29 3 40 8 25 11 -1 11 -35 0z"/>
<path d="M1418 2755 c-30 -25 -60 -45 -65 -45 -6 0 -14 -7 -17 -16 -5 -14 -4
-15 9 -4 8 7 15 9 15 6 0 -4 10 -2 23 4 21 11 21 10 -1 -7 -34 -26 -101 -88
-77 -72 11 8 26 21 33 29 15 18 -22 -56 -46 -89 -16 -23 -16 -24 3 -13 31 18
143 125 117 112 -35 -17 -36 -7 -2 25 32 31 41 56 13 34 -10 -7 -8 -2 5 12 12
14 22 29 22 34 0 4 8 14 18 21 9 7 14 14 11 14 -4 0 -31 -20 -61 -45z"/>
<path d="M1707 2776 c-16 -12 -15 -13 8 -13 15 0 25 5 25 13 0 17 -10 17 -33
0z"/>
<path d="M3110 2763 c0 -18 5 -33 10 -33 13 0 13 30 0 50 -7 11 -10 7 -10 -17z"/>
<path d="M1870 2770 c-8 -5 -10 -10 -5 -10 6 0 17 5 25 10 8 5 11 10 5 10 -5
0 -17 -5 -25 -10z"/>
<path d="M3147 2685 c4 -70 2 -97 -5 -90 -6 6 -12 26 -15 45 -2 19 -4 -4 -5
-52 0 -49 4 -88 9 -88 5 0 8 -15 8 -32 l-1 -33 -7 30 -7 30 -7 -28 c-4 -15
-12 -62 -17 -104 -6 -44 -24 -109 -44 -157 -19 -44 -55 -135 -81 -201 -25 -66
-51 -128 -56 -137 -5 -10 -9 -25 -9 -33 0 -8 -4 -15 -10 -15 -5 0 -10 -11 -10
-25 0 -14 -3 -25 -8 -25 -8 0 -9 -2 -81 -188 -28 -73 -51 -137 -51 -142 0 -6
-4 -18 -9 -28 -6 -9 -21 -41 -35 -70 -35 -72 -94 -154 -169 -232 -34 -35 -73
-78 -88 -96 -80 -100 -183 -202 -209 -208 -16 -3 -42 -19 -59 -35 -17 -17 -31
-28 -31 -25 0 2 -9 0 -20 -6 -16 -9 -18 -15 -10 -30 7 -13 7 -21 -2 -26 -6 -4
-8 -3 -5 2 9 15 -11 42 -20 28 -5 -6 -26 -15 -48 -19 l-40 -8 30 -7 c22 -6 24
-8 10 -10 -11 -1 -29 -1 -39 0 -23 2 -128 72 -167 109 -15 14 -95 91 -179 171
-157 150 -277 295 -329 398 -30 60 -75 196 -107 320 -14 58 -21 71 -34 66 -8
-4 -26 -6 -40 -5 -24 1 -25 -1 -22 -47 2 -26 -2 -67 -8 -92 -7 -25 -16 -67
-22 -95 -6 -27 -17 -62 -24 -77 -8 -15 -12 -38 -9 -50 3 -13 -1 -57 -9 -98 -9
-41 -16 -86 -15 -100 0 -14 12 31 25 100 34 176 55 273 62 290 3 8 7 24 8 35
5 35 30 99 41 102 15 5 24 -53 13 -82 -5 -14 -6 -25 -2 -25 4 0 1 -4 -7 -9
-13 -8 -13 -12 0 -27 12 -16 12 -17 -1 -9 -24 15 -39 14 -33 -1 3 -7 10 -12
15 -11 6 1 13 -4 16 -12 2 -8 1 -11 -4 -8 -5 3 -9 -6 -9 -19 0 -13 3 -24 8
-24 4 0 7 9 7 19 0 11 6 26 13 33 8 7 12 18 10 24 -2 6 1 22 6 35 l10 24 0
-25 c1 -14 7 -35 15 -46 8 -11 14 -34 14 -51 -1 -16 6 -45 15 -63 9 -17 19
-47 23 -66 3 -18 12 -38 20 -45 8 -6 11 -15 8 -20 -3 -5 1 -6 9 -3 8 3 17 -2
21 -11 9 -25 -3 -38 -22 -23 -10 7 -7 1 6 -13 14 -17 20 -33 17 -45 -6 -18 -6
-18 5 -1 9 14 9 22 -2 34 -12 15 -11 15 9 2 14 -8 21 -20 18 -31 -3 -9 -1 -19
4 -23 7 -4 8 1 4 11 -4 12 -3 15 5 10 7 -4 12 -13 12 -19 0 -20 70 -118 80
-112 6 3 7 -1 4 -9 -3 -9 -1 -16 5 -16 6 0 11 -6 11 -14 0 -8 9 -18 20 -21 12
-4 20 -15 20 -28 0 -14 3 -18 8 -10 6 9 12 7 25 -7 9 -11 17 -25 17 -32 0 -6
3 -9 6 -5 9 8 94 -78 94 -95 0 -11 2 -11 9 0 6 11 11 10 25 -3 9 -9 16 -20 16
-25 0 -18 -13 -40 -20 -35 -5 3 -11 1 -15 -5 -3 -5 1 -10 9 -10 9 0 13 -6 10
-13 -8 -21 24 -16 43 6 17 19 17 20 -4 8 -28 -14 -32 4 -8 35 11 13 13 14 9 3
-3 -10 1 -19 11 -23 9 -3 14 -10 11 -15 -4 -5 5 -18 18 -29 34 -26 36 -44 6
-47 -14 -2 -19 -1 -12 1 6 3 12 10 12 16 0 7 -5 6 -14 -2 -21 -16 -9 -40 28
-56 20 -8 25 -13 13 -14 -37 0 -64 -49 -45 -80 10 -15 7 -25 -14 -57 -43 -65
-50 -83 -36 -83 7 0 25 22 40 49 29 51 91 106 108 96 16 -10 12 6 -8 29 -17
21 -17 21 6 2 25 -21 31 -19 37 14 3 13 10 27 16 31 6 3 7 9 3 11 -5 3 -2 3 6
0 8 -2 40 -6 71 -9 56 -6 100 8 141 44 9 8 22 12 29 7 7 -4 10 -3 5 4 -3 5 -3
12 2 14 4 1 22 22 41 46 18 24 35 41 38 39 2 -2 -5 -45 -17 -96 -11 -50 -20
-113 -20 -140 0 -59 20 -81 21 -24 0 30 2 34 9 18 6 -14 8 -6 8 30 -1 34 -3
40 -6 20 -4 -25 -6 -27 -11 -11 -8 22 38 188 50 180 4 -2 13 13 20 33 6 21 25
55 41 75 17 21 26 43 22 49 -5 8 -3 9 5 5 8 -5 14 0 18 13 3 11 13 23 24 26
52 17 300 319 284 345 -7 12 24 94 32 86 3 -2 -3 -18 -12 -36 -9 -18 -14 -34
-12 -37 6 -5 40 69 52 109 5 18 4 20 -4 8 -6 -8 -11 -10 -11 -5 0 18 75 205
82 205 4 0 3 -12 -3 -26 -5 -15 -8 -29 -5 -31 7 -7 35 90 34 118 0 14 16 65
36 114 20 49 36 94 36 99 0 16 51 118 57 113 6 -7 86 153 107 216 40 118 59
384 36 507 -5 30 -6 12 -3 -55z m-20 -317 c-3 -8 -6 -5 -6 6 -1 11 2 17 5 13
3 -3 4 -12 1 -19z m-7 -62 c0 -3 -4 -8 -10 -11 -5 -3 -10 -1 -10 4 0 6 5 11
10 11 6 0 10 -2 10 -4z m-51 -148 c-12 -29 -26 -57 -31 -62 -14 -17 -9 12 11
57 10 23 22 51 26 62 4 11 9 15 12 8 2 -6 -6 -35 -18 -65z m-402 -940 c-66
-88 -158 -191 -165 -183 -3 3 22 33 54 67 33 35 82 94 108 131 27 37 50 66 53
63 2 -2 -20 -37 -50 -78z m-287 -330 c-6 -7 -22 -28 -35 -47 -16 -22 -25 -29
-25 -19 0 19 47 78 61 78 6 0 5 -5 -1 -12z m-160 -128 c-20 -13 -33 -13 -25 0
3 6 14 10 23 10 15 0 15 -2 2 -10z m-356 -96 c3 -8 2 -12 -4 -9 -6 3 -10 10
-10 16 0 14 7 11 14 -7z m53 -63 c-1 -11 -6 -17 -14 -14 -10 4 -11 9 -2 19 15
19 18 18 16 -5z"/>
<path d="M2560 2750 c0 -5 5 -10 11 -10 5 0 7 5 4 10 -3 6 -8 10 -11 10 -2 0
-4 -4 -4 -10z"/>
<path d="M1693 2743 c-23 -9 -13 -20 16 -19 22 1 27 4 19 14 -11 13 -15 13
-35 5z"/>
<path d="M1774 2724 c-18 -14 -18 -15 4 -4 12 6 22 13 22 15 0 8 -5 6 -26 -11z"/>
<path d="M1105 2720 c3 -5 14 -10 23 -10 15 0 15 2 2 10 -20 13 -33 13 -25 0z"/>
<path d="M1490 2725 c0 -10 29 -24 34 -17 3 6 -3 12 -14 15 -11 3 -20 4 -20 2z"/>
<path d="M1053 2700 c-18 -10 -39 -30 -48 -44 -20 -30 -85 -211 -84 -234 0
-17 3 -10 59 141 27 71 41 95 74 122 46 39 46 44 -1 15z"/>
<path d="M1700 2710 c-9 -6 -10 -10 -3 -10 6 0 15 5 18 10 8 12 4 12 -15 0z"/>
<path d="M1624 2689 c-19 -22 -19 -22 2 -11 12 6 23 9 26 7 3 -3 5 2 5 10 0
21 -11 19 -33 -6z"/>
<path d="M1644 2655 c-27 -19 -44 -35 -39 -35 6 0 19 7 29 15 21 16 40 20 32
7 -2 -4 5 -9 16 -9 20 -2 20 -1 2 13 -15 11 -15 13 -3 8 10 -3 20 -1 24 5 4 7
-1 8 -12 4 -16 -6 -16 -5 -4 10 20 25 10 21 -45 -18z"/>
<path d="M1750 2670 c0 -5 5 -10 10 -10 6 0 10 5 10 10 0 6 -4 10 -10 10 -5 0
-10 -4 -10 -10z"/>
<path d="M1098 2635 c10 -16 22 -37 25 -45 5 -13 6 -13 6 0 1 8 -11 29 -25 45
l-26 30 20 -30z"/>
<path d="M1733 2635 c-29 -13 -53 -26 -53 -29 0 -3 7 -3 15 0 22 9 18 -5 -7
-28 -13 -11 -6 -8 15 7 35 24 44 26 105 21 83 -6 187 -32 227 -56 77 -46 182
-94 203 -92 34 3 22 -22 -13 -26 -15 -2 -38 1 -49 7 -115 56 -202 76 -295 66
-70 -7 -87 -14 -138 -52 -30 -23 -31 -25 -16 -54 8 -16 12 -36 9 -44 -10 -26
-8 -30 16 -37 16 -4 18 -6 5 -7 -13 -1 -6 -12 28 -48 25 -25 48 -43 52 -40 3
4 26 -4 50 -19 78 -45 206 -45 259 2 l29 24 -60 -23 c-56 -22 -66 -23 -130
-13 -101 16 -158 57 -209 149 -43 78 -43 82 16 107 37 17 78 25 138 27 78 4
90 2 140 -24 66 -34 120 -112 120 -175 0 -21 5 -38 10 -38 13 0 13 46 -1 90
-22 73 -20 80 20 82 79 3 100 -7 82 -41 -7 -12 -8 -21 -4 -21 11 0 33 49 33
72 0 16 10 22 31 20 4 -1 15 8 25 20 16 18 17 21 2 15 -9 -3 -52 -2 -95 2 -76
8 -97 15 -251 88 -98 46 -151 61 -217 61 -30 -1 -58 2 -61 5 -9 9 35 19 47 11
8 -4 9 -3 5 4 -10 17 -23 14 -83 -13z m65 -353 c6 -18 -15 -14 -22 4 -4 10 -1
14 6 12 6 -2 14 -10 16 -16z"/>
<path d="M2482 2600 c0 -19 2 -27 5 -17 2 9 2 25 0 35 -3 9 -5 1 -5 -18z"/>
<path d="M1010 2568 c-55 -89 -74 -171 -50 -208 7 -11 8 -6 4 16 -5 24 -2 35
14 45 10 8 20 17 20 22 5 32 17 64 27 77 13 15 31 100 22 100 -3 0 -20 -23
-37 -52z"/>
<path d="M1321 2545 c-44 -48 -51 -61 -23 -46 32 18 97 91 80 91 -8 0 -34 -20
-57 -45z"/>
<path d="M1110 2539 c-36 -43 -42 -65 -19 -66 10 -1 24 6 31 16 7 10 18 20 25
22 8 3 8 10 0 31 l-12 26 -25 -29z"/>
<path d="M1223 2550 c4 -14 7 -35 7 -47 0 -13 4 -23 9 -23 10 0 -3 77 -14 88
-4 4 -5 -4 -2 -18z"/>
<path d="M1862 2536 c-33 -19 -36 -24 -8 -19 14 3 27 11 30 19 3 8 4 14 3 13
-1 -1 -12 -7 -25 -13z"/>
<path d="M1309 2485 c-39 -40 -43 -43 -55 -27 -13 16 -13 16 -14 -1 -1 -47 47
-23 109 56 26 33 2 17 -40 -28z"/>
<path d="M1747 2508 c-11 -9 -14 -18 -8 -27 7 -11 10 -11 17 0 8 13 15 39 10
39 -1 0 -10 -6 -19 -12z"/>
<path d="M1450 2470 c-8 -5 -11 -12 -7 -16 4 -4 15 0 24 9 18 18 8 23 -17 7z"/>
<path d="M2590 2451 c0 -32 120 -121 259 -190 46 -23 94 -54 108 -67 14 -14
27 -23 29 -21 10 10 -61 66 -122 96 -83 42 -171 100 -199 131 -29 32 -75 63
-75 51z"/>
<path d="M1082 2403 c-7 -2 -17 -13 -22 -23 -10 -19 -9 -19 20 -2 39 22 41 41
2 25z"/>
<path d="M905 2357 c-4 -24 -4 -97 -1 -163 7 -148 9 -163 20 -157 4 3 5 -5 1
-17 -4 -14 -3 -20 3 -16 5 3 17 -5 26 -19 20 -31 20 -41 0 -24 -13 11 -13 7 2
-17 11 -17 23 -31 27 -32 5 0 15 -9 23 -19 8 -10 -10 32 -39 92 l-52 110 1
153 c1 83 0 152 -2 152 -1 0 -6 -20 -9 -43z m85 -442 c0 -5 -5 -3 -10 5 -5 8
-10 20 -10 25 0 6 5 3 10 -5 5 -8 10 -19 10 -25z"/>
<path d="M1284 2379 c-19 -22 -19 -22 3 -10 24 12 39 31 25 31 -5 0 -17 -10
-28 -21z"/>
<path d="M1339 2363 l-24 -28 28 24 c25 23 32 31 24 31 -2 0 -14 -12 -28 -27z"/>
<path d="M1684 2368 c-4 -7 -4 -10 1 -6 4 4 15 2 23 -5 12 -10 14 -9 11 2 -7
20 -26 25 -35 9z"/>
<path d="M1343 2314 l-28 -25 33 22 c17 13 32 24 32 26 0 8 -11 1 -37 -23z"/>
<path d="M1459 2323 c-13 -16 -12 -17 4 -4 9 7 17 15 17 17 0 8 -8 3 -21 -13z"/>
<path d="M2300 2329 c0 -5 5 -7 10 -4 6 3 10 8 10 11 0 2 -4 4 -10 4 -5 0 -10
-5 -10 -11z"/>
<path d="M1561 2321 c-11 -7 -11 -10 0 -15 8 -3 3 -4 -11 -1 -15 2 -41 -5 -67
-21 -24 -14 -47 -23 -52 -20 -4 3 -17 -4 -27 -17 -10 -12 -12 -16 -4 -9 20 17
41 15 34 -3 -4 -8 -1 -15 5 -15 6 0 11 9 11 20 0 14 7 20 24 20 13 0 33 3 43
6 15 5 15 4 3 -5 -13 -9 -13 -11 2 -11 9 0 24 -7 33 -16 15 -15 17 -15 35 1
16 15 18 21 7 33 -10 13 -9 15 3 8 11 -6 11 -4 -1 6 -9 7 -15 21 -13 31 2 19
-4 21 -25 8z m-1 -61 c0 -5 -5 -10 -11 -10 -5 0 -7 5 -4 10 3 6 8 10 11 10 2
0 4 -4 4 -10z"/>
<path d="M1350 2269 l-45 -41 48 37 c41 33 53 45 45 45 -2 0 -23 -18 -48 -41z"/>
<path d="M2660 2283 l34 -30 -44 -20 c-25 -11 -56 -33 -70 -48 l-25 -27 50 25
c75 39 125 44 172 17 44 -24 88 -85 104 -142 9 -37 29 -61 29 -36 0 30 -32
113 -54 143 -14 17 -55 48 -93 69 -37 20 -84 47 -103 58 l-35 21 35 -30z"/>
<path d="M1359 2242 l-34 -37 35 30 c19 17 37 31 39 33 2 1 2 4 -1 7 -2 3 -20
-12 -39 -33z"/>
<path d="M1130 2246 c-5 -15 -14 -25 -20 -21 -13 8 -40 -37 -39 -66 1 -13 0
-28 -2 -34 -5 -15 74 -145 89 -145 16 0 15 11 -3 37 -18 25 -19 63 -6 163 11
79 0 116 -19 66z"/>
<path d="M1470 2230 c0 -4 -10 -12 -22 -18 -21 -11 -20 -11 10 -6 21 4 32 2
32 -6 0 -7 -7 -10 -15 -6 -8 3 -15 1 -15 -4 0 -19 28 -10 43 14 15 23 15 24
-8 29 -14 2 -25 1 -25 -3z"/>
<path d="M1565 2198 l-20 -21 23 12 c26 14 29 4 5 -16 -16 -13 -16 -13 4 -4
31 16 41 13 19 -4 -11 -8 -15 -15 -10 -15 16 0 51 29 35 30 -8 0 -11 7 -8 20
7 27 -21 26 -48 -2z"/>
<path d="M1436 2181 c-4 -6 -4 -11 1 -11 4 0 1 -5 -7 -10 -8 -5 -10 -10 -5
-10 20 0 34 16 26 29 -6 9 -11 10 -15 2z"/>
<path d="M1251 2149 c-7 -16 -23 -39 -35 -50 -16 -16 -17 -19 -4 -14 20 8 61
70 56 85 -2 6 -9 -4 -17 -21z"/>
<path d="M1518 2173 c10 -4 8 -8 -5 -18 -17 -13 -17 -14 -1 -20 9 -4 25 -2 35
5 16 9 15 10 -7 5 -23 -6 -24 -5 -7 8 16 13 16 15 1 21 -8 3 -19 6 -22 5 -4 0
-1 -3 6 -6z"/>
<path d="M2235 2169 c-5 -5 -19 -16 -30 -24 -11 -7 -18 -16 -15 -18 3 -3 21 8
40 24 19 15 31 28 25 28 -5 0 -14 -4 -20 -10z"/>
<path d="M1470 2130 c-9 -6 -10 -10 -3 -10 6 0 15 5 18 10 8 12 4 12 -15 0z"/>
<path d="M1563 2128 c-37 -12 -45 -29 -10 -21 23 6 68 34 52 32 -6 -1 -25 -6
-42 -11z"/>
<path d="M1375 2110 c-3 -6 1 -7 9 -4 18 7 21 14 7 14 -6 0 -13 -4 -16 -10z"/>
<path d="M1585 2103 c-27 -8 -56 -15 -63 -15 -7 -1 -9 -5 -4 -10 5 -5 28 -2
52 7 51 18 64 13 22 -9 -16 -8 -32 -13 -34 -10 -3 2 -17 -2 -31 -9 -43 -22
-19 -27 30 -6 48 20 67 24 59 11 -3 -5 8 -6 25 -4 34 5 38 18 8 27 -16 5 -18
10 -8 21 14 17 9 17 -56 -3z"/>
<path d="M1400 2100 c-8 -5 -10 -10 -5 -10 6 0 17 5 25 10 8 5 11 10 5 10 -5
0 -17 -5 -25 -10z"/>
<path d="M1445 2095 c-16 -8 -23 -14 -15 -14 8 0 26 6 40 14 32 18 15 18 -25
0z"/>
<path d="M990 2092 c0 -12 19 -26 26 -19 2 2 -2 10 -11 17 -9 8 -15 8 -15 2z"/>
<path d="M1175 2085 c-3 -8 -7 -22 -10 -30 -2 -8 0 -17 5 -20 11 -7 12 -4 14
38 2 30 -2 35 -9 12z"/>
<path d="M1450 2065 c-14 -8 -20 -14 -15 -14 6 0 21 6 35 14 14 8 21 14 15 14
-5 0 -21 -6 -35 -14z"/>
<path d="M2550 2076 c0 -14 55 -92 79 -113 27 -24 34 -25 121 -23 74 1 111 9
134 26 31 22 11 27 -41 10 -73 -24 -138 -30 -172 -16 -17 7 -51 37 -76 67 -25
31 -45 52 -45 49z"/>
<path d="M1564 2018 l-29 -33 33 29 c30 28 37 36 29 36 -2 0 -16 -15 -33 -32z"/>
<path d="M1603 2023 c-10 -10 -13 -14 -6 -10 6 5 20 7 30 5 14 -3 11 -8 -15
-22 -19 -9 -32 -20 -29 -22 3 -3 15 1 26 8 18 11 23 11 30 0 6 -10 10 -10 21
3 10 12 10 15 0 15 -9 0 -10 3 -1 14 9 11 8 15 -5 20 -24 9 -30 8 -51 -11z"/>
<path d="M1515 2009 c-16 -10 -25 -19 -19 -19 7 0 22 9 35 20 30 24 23 24 -16
-1z"/>
<path d="M2991 1969 c-6 -18 -9 -34 -7 -36 2 -2 9 10 15 28 6 18 9 34 7 36 -2
2 -9 -10 -15 -28z"/>
<path d="M1450 1980 c-8 -5 -10 -10 -5 -10 6 0 17 5 25 10 8 5 11 10 5 10 -5
0 -17 -5 -25 -10z"/>
<path d="M1530 1959 c-17 -13 -18 -17 -5 -10 33 17 51 31 40 31 -5 0 -21 -10
-35 -21z"/>
<path d="M1073 1945 c9 -16 25 -40 36 -52 12 -13 17 -25 11 -28 -19 -12 -10
-24 15 -19 19 3 28 -2 40 -26 9 -16 18 -30 20 -30 6 0 -5 50 -14 65 -3 6 -4
18 -2 29 1 10 0 29 -3 41 -8 30 -46 23 -46 -8 0 -17 -6 -14 -36 19 -33 36 -35
37 -21 9z"/>
<path d="M1265 1960 c-3 -5 -1 -10 4 -10 6 0 11 5 11 10 0 6 -2 10 -4 10 -3 0
-8 -4 -11 -10z"/>
<path d="M1606 1963 c-3 -4 -6 -11 -6 -17 0 -6 5 -5 12 2 17 17 33 15 19 -2
-10 -12 -9 -14 6 -10 30 8 27 -34 -3 -48 -18 -9 -24 -19 -24 -44 0 -20 -6 -37
-17 -42 -9 -6 -17 -19 -18 -31 -2 -20 0 -20 24 6 14 16 35 35 46 43 20 15 50
60 40 60 -3 0 -17 -7 -31 -16 -13 -9 -28 -13 -32 -9 -4 4 1 12 11 19 45 27 48
31 41 62 -5 26 -11 31 -34 32 -15 0 -31 -2 -34 -5z m31 -140 c-15 -16 -17 -16
-17 -1 0 9 6 18 13 21 20 7 22 -2 4 -20z"/>
<path d="M1540 1929 l-25 -20 31 15 c17 8 34 12 38 9 3 -4 6 -1 6 5 0 18 -22
14 -50 -9z"/>
<path d="M1277 1923 c3 -6 11 -9 19 -6 20 7 17 19 -5 19 -11 0 -17 -6 -14 -13z"/>
<path d="M1549 1903 c-13 -17 -13 -17 6 -3 11 8 22 16 24 17 2 2 0 3 -6 3 -6
0 -17 -8 -24 -17z"/>
<path d="M1625 1910 c-3 -5 -2 -10 4 -10 5 0 13 5 16 10 3 6 2 10 -4 10 -5 0
-13 -4 -16 -10z"/>
<path d="M2130 1873 c-80 -67 -83 -74 -71 -165 2 -19 21 -6 21 15 1 22 1 22
15 -3 8 -14 14 -20 15 -15 0 6 9 11 21 11 19 0 19 -1 3 -13 -15 -11 -14 -12 5
-10 11 1 23 7 25 14 3 7 17 13 31 13 24 0 26 -3 20 -31 l-7 -31 21 21 c12 12
30 21 41 21 21 0 69 26 82 45 21 28 8 35 -58 31 -73 -5 -114 -25 -53 -27 l34
-1 -30 -9 c-26 -7 -101 -13 -132 -10 -18 2 -24 33 -14 67 10 37 49 84 68 84 8
0 12 4 8 9 -3 6 3 14 12 20 10 6 14 10 8 10 -5 0 -35 -21 -65 -46z"/>
<path d="M1566 1885 c-11 -8 -15 -15 -9 -15 6 0 16 7 23 15 16 19 11 19 -14 0z"/>
<path d="M1010 1869 c0 -4 7 -22 15 -40 10 -25 14 -29 15 -13 0 17 -29 70 -30
53z"/>
<path d="M2945 1849 c-4 -6 -5 -12 -2 -15 2 -3 7 2 10 11 7 17 1 20 -8 4z"/>
<path d="M1610 1759 c-35 -34 -53 -56 -41 -49 30 15 128 110 115 110 -6 0 -39
-28 -74 -61z"/>
<path d="M1622 1729 c-70 -66 -80 -94 -12 -33 35 32 88 95 78 94 -2 -1 -32
-28 -66 -61z"/>
<path d="M2494 1738 c-9 -18 -28 -47 -40 -64 -27 -35 -32 -53 -9 -34 17 14 77
122 71 128 -3 2 -12 -11 -22 -30z"/>
<path d="M2027 1730 c-3 -11 -1 -23 4 -26 5 -3 9 6 9 20 0 31 -6 34 -13 6z"/>
<path d="M1600 1670 c-33 -34 -60 -66 -60 -73 0 -7 16 5 35 26 20 22 40 35 47
31 7 -5 8 -3 3 5 -5 8 4 24 24 42 18 16 28 29 22 29 -6 0 -38 -27 -71 -60z"/>
<path d="M1320 1715 c0 -5 5 -17 10 -25 5 -8 10 -10 10 -5 0 6 -5 17 -10 25
-5 8 -10 11 -10 5z"/>
<path d="M1500 1680 c-9 -6 -10 -10 -3 -10 6 0 15 5 18 10 8 12 4 12 -15 0z"/>
<path d="M2142 1654 c-1 -13 0 -24 2 -24 7 0 14 40 7 44 -4 3 -8 -6 -9 -20z"/>
<path d="M2392 1668 c-7 -7 -12 -16 -12 -20 0 -15 15 -8 28 12 13 22 3 27 -16
8z"/>
<path d="M1585 1612 c-11 -15 -19 -30 -17 -34 1 -5 -1 -7 -5 -7 -19 3 -23 -2
-11 -14 10 -11 17 -9 40 12 16 14 27 30 24 37 -2 6 1 17 7 23 8 8 7 11 -3 11
-8 0 -24 -13 -35 -28z m20 -21 c-3 -6 -11 -11 -17 -11 -6 0 -6 6 2 15 14 17
26 13 15 -4z"/>
<path d="M1520 1620 c-8 -5 -12 -12 -9 -15 4 -3 12 1 19 10 14 17 11 19 -10 5z"/>
<path d="M1509 1573 c-13 -16 -12 -17 4 -4 9 7 17 15 17 17 0 8 -8 3 -21 -13z"/>
<path d="M1502 1520 c-18 -17 -28 -30 -24 -30 5 0 17 9 27 20 25 27 32 25 30
-9 -1 -26 0 -28 17 -18 17 11 17 12 0 19 -9 3 -12 7 -5 7 6 1 9 10 6 21 -7 26
-12 25 -51 -10z"/>
<path d="M1588 1483 c7 -3 16 -2 19 1 4 3 -2 6 -13 5 -11 0 -14 -3 -6 -6z"/>
<path d="M1539 1453 c-13 -16 -12 -17 4 -4 16 13 21 21 13 21 -2 0 -10 -8 -17
-17z"/>
<path d="M1470 1440 c-9 -6 -10 -10 -3 -10 6 0 15 5 18 10 8 12 4 12 -15 0z"/>
<path d="M2158 1443 c7 -3 16 -2 19 1 4 3 -2 6 -13 5 -11 0 -14 -3 -6 -6z"/>
<path d="M1474 1408 l-29 -33 33 29 c30 28 37 36 29 36 -2 0 -16 -15 -33 -32z"/>
<path d="M1515 1419 c-4 -6 -5 -12 -2 -15 2 -3 7 2 10 11 7 17 1 20 -8 4z"/>
<path d="M1581 1397 c-13 -21 -12 -21 5 -5 10 10 16 20 13 22 -3 3 -11 -5 -18
-17z"/>
<path d="M2055 1412 c-53 -9 -43 -16 40 -28 50 -8 130 -27 179 -44 49 -16 91
-28 93 -26 2 2 -3 19 -11 37 -8 20 -15 27 -15 17 -1 -23 -7 -23 -105 6 -111
32 -157 42 -181 38z"/>
<path d="M1528 1388 c-13 -13 -17 -17 -8 -10 9 6 22 12 28 12 6 0 14 5 17 10
11 19 -14 10 -37 -12z"/>
<path d="M1479 1383 c-13 -16 -12 -17 4 -4 16 13 21 21 13 21 -2 0 -10 -8 -17
-17z"/>
<path d="M1524 1358 l-19 -23 23 19 c21 18 27 26 19 26 -2 0 -12 -10 -23 -22z"/>
<path d="M1473 1316 c-3 -5 -1 -6 5 -2 5 3 12 1 14 -5 2 -7 8 -7 15 3 10 11 8
14 -8 14 -11 0 -23 -5 -26 -10z"/>
<path d="M1524 1308 l-19 -23 23 19 c21 18 27 26 19 26 -2 0 -12 -10 -23 -22z"/>
<path d="M1533 1288 c-11 -13 -23 -32 -27 -42 -5 -16 -4 -17 9 -6 26 21 29 3
5 -32 l-22 -33 31 34 c27 30 28 35 14 49 -13 14 -13 17 9 33 12 10 18 19 12
19 -6 0 -20 -10 -31 -22z"/>
<path d="M1260 1274 c0 -8 5 -12 10 -9 6 3 10 10 10 16 0 5 -4 9 -10 9 -5 0
-10 -7 -10 -16z"/>
<path d="M2090 1252 c0 -6 17 -14 38 -18 20 -3 63 -12 95 -20 54 -14 77 -12
77 5 0 7 -83 26 -162 37 -31 4 -48 3 -48 -4z"/>
<path d="M1260 1229 c0 -5 5 -7 10 -4 6 3 10 8 10 11 0 2 -4 4 -10 4 -5 0 -10
-5 -10 -11z"/>
<path d="M1240 1225 c0 -5 5 -17 10 -25 5 -8 10 -10 10 -5 0 6 -5 17 -10 25
-5 8 -10 11 -10 5z"/>
<path d="M1306 1214 c-4 -9 -4 -19 -1 -22 3 -3 5 0 5 7 0 7 4 9 10 6 6 -3 7 1
4 9 -8 20 -10 20 -18 0z"/>
<path d="M1545 1200 c-9 -18 -14 -34 -12 -37 3 -2 12 10 21 28 9 18 14 34 12
37 -3 2 -12 -10 -21 -28z"/>
<path d="M1305 1160 c10 -11 20 -20 23 -20 3 0 -3 9 -13 20 -10 11 -20 20 -23
20 -3 0 3 -9 13 -20z"/>
<path d="M1289 1143 c-1 -5 -3 -18 -4 -29 -4 -34 -16 -49 -27 -33 -8 11 -9 11
-5 -1 2 -8 15 -15 29 -15 19 -1 24 3 20 14 -4 10 -1 12 8 6 9 -6 8 -1 -3 14
-8 13 -13 30 -10 37 3 8 2 14 -1 14 -3 0 -7 -3 -7 -7z"/>
<path d="M1017 1035 c-10 -55 -26 -158 -37 -228 -10 -71 -20 -130 -22 -131 -1
-1 -25 -18 -53 -37 -27 -20 -71 -48 -97 -63 l-48 -27 -177 4 c-187 4 -321 -8
-402 -37 -107 -39 -221 -117 -168 -116 21 1 62 28 62 41 0 7 6 14 14 17 9 3
11 0 6 -7 -4 -7 8 -6 32 5 158 68 132 64 407 69 l254 4 81 56 c54 38 81 51 81
41 0 -8 -9 -54 -20 -102 -20 -84 -49 -149 -71 -156 -6 -2 -4 -11 4 -22 19 -25
35 -13 43 32 4 20 10 42 14 47 13 18 49 189 74 360 15 94 31 199 37 235 6 36
10 76 8 90 -2 14 -12 -20 -22 -75z"/>
<path d="M1316 1117 c3 -10 9 -15 12 -12 3 3 0 11 -7 18 -10 9 -11 8 -5 -6z"/>
<path d="M1262 900 c-10 -17 -10 -20 3 -20 8 0 15 9 15 20 0 11 -1 20 -3 20
-1 0 -8 -9 -15 -20z"/>
<path d="M1352 805 c0 -16 2 -22 5 -12 2 9 2 23 0 30 -3 6 -5 -1 -5 -18z"/>
<path d="M1330 760 c-9 -6 -10 -10 -3 -10 6 0 15 5 18 10 8 12 4 12 -15 0z"/>
<path d="M1757 716 c-6 -15 19 -30 34 -20 6 3 5 11 -2 20 -15 18 -25 18 -32 0z"/>
<path d="M1520 692 c0 -10 -6 -24 -12 -31 -11 -11 -10 -13 1 -9 17 5 35 58 20
58 -5 0 -9 -8 -9 -18z"/>
<path d="M1705 700 c-3 -6 1 -10 9 -10 8 0 18 -5 22 -12 5 -7 3 -8 -6 -3 -10
6 -12 4 -7 -8 8 -21 -12 -34 -24 -16 -6 9 -9 10 -9 2 0 -6 7 -19 16 -27 8 -9
12 -21 8 -27 -5 -8 -3 -9 5 -5 7 5 10 14 8 20 -3 7 -1 19 4 27 8 12 10 12 18
-1 5 -8 8 -17 5 -21 -2 -4 3 -12 10 -18 24 -20 31 8 7 30 -11 10 -18 25 -15
33 6 16 -42 50 -51 36z"/>
<path d="M2291 674 c0 -11 3 -14 6 -6 3 7 2 16 -1 19 -3 4 -6 -2 -5 -13z"/>
<path d="M2281 634 c0 -11 3 -14 6 -6 3 7 2 16 -1 19 -3 4 -6 -2 -5 -13z"/>
<path d="M1950 610 c-8 -5 -10 -10 -5 -10 6 0 17 5 25 10 8 5 11 10 5 10 -5 0
-17 -5 -25 -10z"/>
<path d="M1680 595 c6 -8 9 -18 7 -22 -3 -5 3 -9 13 -9 18 0 18 2 -2 23 -24
25 -38 32 -18 8z"/>
<path d="M1730 577 c0 -8 6 -20 14 -26 10 -9 13 -7 12 11 -1 24 -26 38 -26 15z"/>
<path d="M2125 579 c-4 -6 -5 -12 -2 -15 2 -3 7 2 10 11 7 17 1 20 -8 4z"/>
<path d="M1555 520 c3 -5 8 -10 11 -10 2 0 4 5 4 10 0 6 -5 10 -11 10 -5 0 -7
-4 -4 -10z"/>
<path d="M1632 518 c-19 -19 -14 -29 8 -16 20 13 27 28 12 28 -4 0 -13 -5 -20
-12z"/>
<path d="M715 510 c-8 -13 -95 -70 -124 -82 -15 -6 -21 -12 -14 -15 7 -3 26 5
41 16 16 11 32 18 35 15 3 -3 23 7 44 22 56 41 56 41 39 47 -8 3 -18 2 -21 -3z"/>
<path d="M2240 457 c0 -52 51 -137 82 -137 17 0 7 17 -17 30 -14 7 -25 20 -25
29 0 29 -21 91 -30 91 -6 0 -10 -6 -10 -13z"/>
<path d="M410 431 c-8 -6 -36 -13 -63 -16 -39 -6 -47 -10 -42 -23 5 -14 3 -14
-13 1 -20 18 -62 23 -62 8 0 -5 10 -7 23 -3 20 5 21 4 8 -11 -12 -15 -11 -17
3 -17 9 0 16 -7 16 -15 0 -9 6 -12 15 -9 8 4 13 9 10 14 -4 7 17 9 92 10 30 0
32 2 30 35 -1 19 -2 35 -2 35 0 0 -7 -4 -15 -9z m-55 -41 c3 -5 -1 -10 -10
-10 -9 0 -13 5 -10 10 3 6 8 10 10 10 2 0 7 -4 10 -10z"/>
<path d="M440 411 c0 -27 3 -29 35 -28 19 1 35 5 35 10 0 4 5 5 10 2 6 -4 7
-11 4 -17 -4 -6 -1 -8 7 -6 8 3 13 11 11 17 -1 6 2 11 7 11 5 0 7 8 5 18 -6
19 -53 25 -67 7 -6 -7 -10 -6 -14 3 -10 24 -33 13 -33 -17z"/>
<path d="M3015 408 c-123 -6 -156 -12 -305 -47 -47 -11 -112 -24 -145 -29 -93
-15 -225 -46 -225 -53 0 -18 53 -16 133 7 49 14 96 24 103 22 8 -2 -12 -20
-45 -41 -32 -22 -79 -59 -104 -83 -26 -24 -51 -44 -56 -44 -5 0 -12 -8 -16
-17 -3 -10 -27 -35 -54 -56 -60 -47 -62 -67 -9 -65 30 1 49 10 81 40 26 24 34
36 22 32 -16 -5 -17 -4 -5 5 8 6 22 11 31 11 9 0 16 7 16 15 0 8 -4 15 -9 15
-5 0 -6 5 -3 10 4 6 15 8 25 5 10 -3 22 0 26 6 5 8 3 9 -6 4 -9 -5 -11 -4 -6
4 5 7 16 9 29 5 20 -6 21 -5 7 11 -14 17 -13 18 4 12 13 -5 25 -1 38 13 10 11
26 20 34 20 8 0 13 4 10 9 -4 5 4 7 16 4 19 -4 20 -3 8 6 -13 9 -13 11 3 11 9
0 17 4 17 10 0 5 7 6 17 3 10 -4 14 -2 9 5 -3 6 3 14 16 18 13 4 49 19 80 34
31 15 59 26 61 24 2 -3 17 0 33 7 16 6 45 13 64 15 19 3 49 9 65 14 76 25 327
8 347 -23 5 -8 11 -7 22 2 12 10 16 10 16 2 0 -7 5 -9 11 -6 6 4 32 -1 57 -10
57 -21 80 -41 37 -31 -29 7 -29 7 -9 -8 40 -29 163 -86 184 -86 46 0 10 27
-122 93 -83 41 -158 72 -190 77 -29 5 -84 15 -123 22 -48 9 -108 11 -190 6z
m611 -176 c-4 -3 -14 2 -24 12 -16 18 -16 18 6 6 13 -6 21 -14 18 -18z m-1280
-171 c-4 -5 -1 -11 6 -13 7 -3 5 -7 -6 -11 -10 -4 -15 -3 -11 3 3 6 1 10 -5
10 -6 0 -8 5 -5 10 3 6 11 10 16 10 6 0 8 -4 5 -9z"/>
<path d="M1326 384 c-10 -25 1 -29 14 -5 6 12 7 21 1 21 -5 0 -12 -7 -15 -16z"/>
<path d="M198 368 c-22 -7 -28 -16 -28 -38 0 -33 26 -48 35 -20 3 10 13 24 22
32 12 9 15 9 9 1 -4 -8 -2 -13 8 -13 21 0 25 23 7 37 -19 14 -18 14 -53 1z"/>
<path d="M1570 344 c0 -8 5 -12 10 -9 6 4 8 11 5 16 -9 14 -15 11 -15 -7z"/>
<path d="M126 335 c-3 -8 -15 -15 -26 -15 -11 0 -20 -5 -20 -11 0 -5 -5 -7
-12 -3 -7 4 -8 3 -4 -5 9 -13 -17 -41 -42 -46 -28 -5 -28 -6 -8 -14 17 -7 17
-8 2 -24 -17 -17 -18 -37 -1 -49 6 -5 5 -8 -2 -8 -7 0 -13 -12 -13 -26 0 -34
24 -26 28 9 2 20 9 27 24 27 21 0 21 0 3 -20 -18 -20 -18 -21 1 -14 19 7 19 7
0 -14 -17 -19 -17 -22 -3 -28 9 -3 22 -3 29 1 7 4 2 -3 -12 -14 l-25 -22 28
12 c15 7 26 17 24 23 -2 6 3 17 12 24 9 7 0 5 -19 -4 -30 -14 -33 -15 -22 -2
7 9 11 21 10 28 -3 13 -2 14 95 61 37 19 63 35 57 37 -7 3 -25 -6 -41 -18 -17
-12 -35 -20 -42 -17 -7 2 3 12 21 21 38 20 37 25 -6 31 -19 2 -36 -2 -43 -11
-14 -17 -9 -17 27 -4 24 9 25 9 14 -5 -7 -8 -15 -13 -18 -11 -9 9 -43 -15 -36
-26 4 -5 0 -14 -7 -19 -20 -12 -31 -11 -23 3 5 7 2 9 -9 5 -11 -4 -14 -2 -10
9 3 7 13 14 22 14 11 0 7 6 -11 18 -20 13 -25 21 -17 29 17 17 43 5 28 -13
-14 -17 -2 -18 15 -1 17 16 9 37 -11 30 -11 -4 -14 -2 -9 5 11 18 49 15 42 -3
-8 -21 7 -19 28 4 13 14 14 24 7 45 -12 30 -17 32 -25 11z m-86 -130 c-7 -8
-17 -15 -22 -15 -6 0 -5 7 2 15 7 8 17 15 22 15 6 0 5 -7 -2 -15z"/>
<path d="M589 323 c-13 -16 -12 -17 4 -4 16 13 21 21 13 21 -2 0 -10 -8 -17
-17z"/>
<path d="M833 320 c-13 -5 -23 -11 -23 -14 0 -7 40 6 46 15 6 10 6 10 -23 -1z"/>
<path d="M867 313 c-4 -3 -7 -11 -7 -17 0 -6 5 -5 12 2 6 6 9 14 7 17 -3 3 -9
2 -12 -2z"/>
<path d="M796 281 c-4 -6 -4 -11 -1 -11 4 0 -1 -7 -9 -16 -26 -25 -78 -104
-69 -104 4 0 1 -5 -7 -10 -9 -6 -11 -10 -3 -10 7 0 10 -7 7 -15 -4 -8 -12 -15
-20 -15 -8 0 -14 -5 -14 -11 0 -6 9 -8 21 -4 16 5 19 4 14 -5 -5 -9 -4 -11 3
-6 10 6 28 72 24 88 -1 4 5 5 13 2 15 -6 35 29 30 51 -1 6 0 7 2 3 9 -16 23
-7 23 13 0 11 10 29 23 40 12 10 17 18 10 19 -6 0 -14 -6 -16 -12 -4 -10 -8
-10 -15 1 -7 9 -12 10 -16 2z"/>
<path d="M312 210 c0 -14 2 -19 5 -12 2 6 2 18 0 25 -3 6 -5 1 -5 -13z"/>
<path d="M3666 204 c-4 -10 -1 -24 7 -31 11 -11 13 -9 12 11 0 31 -11 42 -19
20z"/>
<path d="M194 194 c-10 -8 -14 -13 -7 -10 7 4 11 -1 10 -14 -1 -19 -17 -29
-17 -11 0 13 -58 7 -72 -7 -9 -9 -8 -12 4 -12 9 0 20 5 23 10 3 6 11 10 16 10
6 0 7 -4 4 -10 -4 -6 1 -7 12 -4 13 4 11 0 -7 -15 l-25 -22 38 18 c21 9 36 22
33 29 -2 6 2 21 10 33 18 25 6 28 -22 5z"/>
<path d="M976 199 c-11 -35 -13 -59 -6 -59 9 0 23 61 15 68 -2 3 -6 -1 -9 -9z"/>
<path d="M3699 168 c5 -15 18 -24 37 -26 16 -2 35 -9 42 -14 7 -6 15 -9 17 -6
8 7 -72 68 -89 68 -12 0 -13 -5 -7 -22z"/>
<path d="M2565 164 c-16 -8 -34 -20 -40 -26 -5 -5 9 0 33 12 23 12 42 24 42
26 0 6 -2 5 -35 -12z"/>
<path d="M359 136 c-2 -2 -35 -6 -73 -9 -37 -3 -73 -10 -79 -16 -6 -6 -8 -12
-4 -12 4 -1 12 -3 17 -4 6 -1 18 -3 28 -4 15 -1 15 -3 2 -12 -12 -9 -11 -9 5
-4 39 14 131 13 197 -2 38 -8 66 -18 64 -22 -2 -3 6 -7 17 -8 39 -2 71 -10
111 -28 38 -16 39 -16 33 4 -3 12 1 22 9 25 8 3 14 11 14 17 0 8 -6 6 -18 -4
-16 -15 -24 -13 -107 15 -50 17 -96 35 -103 41 -7 6 -25 12 -40 13 -15 2 -36
5 -48 8 -12 3 -23 4 -25 2z"/>
<path d="M962 90 c0 -14 2 -19 5 -12 2 6 2 18 0 25 -3 6 -5 1 -5 -13z"/>
<path d="M15 70 c-10 -11 -16 -22 -13 -25 3 -3 13 4 23 15 10 11 16 22 13 25
-3 3 -13 -4 -23 -15z"/>
<path d="M215 80 c-3 -5 -1 -10 4 -10 6 0 11 5 11 10 0 6 -2 10 -4 10 -3 0 -8
-4 -11 -10z"/>
<path d="M115 60 c-3 -6 1 -7 9 -4 18 7 21 14 7 14 -6 0 -13 -4 -16 -10z"/>
<path d="M176 61 c-8 -12 0 -31 13 -31 4 0 16 7 27 16 19 15 19 15 0 9 -11 -3
-23 -1 -26 6 -6 8 -9 8 -14 0z"/>
<path d="M280 40 c-9 -6 -10 -10 -3 -10 6 0 15 5 18 10 8 12 4 12 -15 0z"/>
</g>
</svg>
